<?xml version="1.0" encoding="UTF-8"?>
<svg width="1113.3pt" height="485.15pt" version="1.1" viewBox="0 0 1113.3 485.15" xmlns="http://www.w3.org/2000/svg" xmlns:cc="http://creativecommons.org/ns#" xmlns:dc="http://purl.org/dc/elements/1.1/" xmlns:rdf="http://www.w3.org/1999/02/22-rdf-syntax-ns#">
 <metadata>
  <rdf:RDF>
   <cc:Work rdf:about="">
    <dc:format>image/svg+xml</dc:format>
    <dc:type rdf:resource="http://purl.org/dc/dcmitype/StillImage"/>
    <dc:title/>
   </cc:Work>
  </rdf:RDF>
 </metadata>
 <g transform="translate(-107.11 730.95)">
  <g stroke="#000">
   <path d="m445.05-728.94c1.17-1.43 3.21-1.46 4.91-1.51 13.68 0.03 27.36-0.02 41.04 0.02 2.07-0.11 4.8 0.82 4.69 3.34 0.17 14.97-0.01 29.96 0.07 44.94-0.39 1.96 1.3 3.82 3.28 3.67 11.94 0.18 23.91-0.15 35.85 0.14 2.23-0.06 3.61 2.18 3.37 4.23 0.01 12.33 0.05 24.66-0.02 36.99 0.18 2.01-1.34 3.78-3.38 3.73-11.64 0.17-23.29-0.03-34.93 0.08-1.88-0.11-4.41 0.87-4.16 3.16-0.03 31.67-0.03 63.35 0 95.02-0.24 2.25 2.25 3.34 4.14 3.2 11.7 0.07 23.41-0.08 35.11 0.05 2.53-0.1 3.5 2.68 3.26 4.8-0.05 12.3 0.07 24.61-0.06 36.92 0.2 2.93-3.09 3.67-5.37 3.58-17.18-0.02-34.36 0.1-51.54-0.06-11.67-0.05-23.82-4.27-31.52-13.34-3.84-4.42-5.33-10.33-5.38-16.08-0.04-38.02 0.02-76.04-0.03-114.06 0.22-1.88-1.67-3.22-3.37-3.16-7.2-0.16-14.4 0.03-21.6-0.08 3.69 10.3 4.92 21.3 4.87 32.2-0.04 12.02 0.03 24.04-0.02 36.05 0.25 1.92-1.06 4.11-3.18 3.96-47.71 0.04-95.43 0.02-143.15 0.01-1.87 0.04-4.34 0.02-5.22 2.05-0.99 6.7 2.78 13.33 8.06 17.24 8.61 6.5 19.46 9.65 30.16 9.93 31.38 0.01 62.76-0.03 94.14 0.01 2.69-0.35 3.92 2.49 3.68 4.76-0.03 12.29 0.1 24.59-0.07 36.87 0.29 3.15-3.26 3.85-5.69 3.72-21.64-0.07-43.28 0.11-64.91-0.09-24.39-0.37-49.47-1.91-72.24-11.42-13.52-5.6-25.29-15.72-31.84-28.91-9.22-18.2-10.62-39.13-9.96-59.19 0.72-16.35 4.37-32.82 12.48-47.15-13.17-0.02-26.34-0.03-39.51 0-5.56-0.05-10.57 3.06-14.35 6.9-2.41 2.52-4.61 5.64-4.67 9.27-0.1 42.38 0.06 84.77-0.08 127.16 0.13 3.1-3.58 3.37-5.86 3.4-16.7 0.04-33.4 0.04-50.1 0.01-2.3-0.03-6.06-0.29-5.94-3.41-0.11-43.7-0.02-87.41-0.05-131.11 0.07-6.86-0.54-13.91 1.66-20.53 3.74-11.87 13.27-20.91 23.64-27.23 11.01-6.71 23.99-9.41 36.77-9.55 20.65-0.08 41.3-0.01 61.95-0.04 2.31 0.08 6.24 0.09 6.23 3.3 0.13 9.4 0.05 18.82 0.03 28.22 8.84-9.21 19.47-16.76 31.28-21.66 16.24-6.94 34.02-9.44 51.58-9.72 16.87-0.11 34.05 1.32 50.05 7.05 11.41 4.09 22.29 10.56 30.01 20.05 1.67 2.07 3.14 4.31 4.9 6.32 0.26-10.09 0-20.2 0.12-30.29-0.16-2.02 1.88-3.28 3.7-3.22 7.67-0.15 15.34 0.05 23.02-0.06 1.49 0.04 3.62-0.92 3.45-2.68 0.1-13.65 0.03-27.31 0.03-40.96 0.06-2.28-0.29-4.69 0.67-6.84m-126.49 91.62c-8.8 1.19-17.33 3.87-25.47 7.38-5.48 2.44-10.82 5.49-15.09 9.77-3.48 3.69-6.21 8.79-5.29 14 0.9 2.03 3.39 2.01 5.28 2.05 32.31-0.02 64.63-0.01 96.94 0 1.99 0.17 4.9-0.47 5-2.94 0.26-4.94-1.15-10-3.93-14.09-5.53-7.88-14.84-11.93-23.89-14.21-10.95-2.56-22.38-3.47-33.55-1.96z"/>
   <path d="m554.51-658.66c12.27-12.75 29.95-19.46 47.51-19.63 21.33-0.35 42.67-0.05 64-0.16 2.4 0.07 6.41 0.02 6.46 3.36 0.07 11.36 0.11 22.72-0.04 34.08 7.88-19.42 26.9-33.13 47.42-36.19 12.6-1.91 25.38-1.04 38.07-1.24 19.65 0 39.3-0.01 58.96 0 12.71 0.18 25.63 2.83 36.74 9.2-1.11 3.73-2.92 7.26-3.36 11.17 5.13 1.55 10.08 3.6 15.02 5.65-2.92 4.96-6.66 9.37-9.43 14.41 3.82 2.17 6.89 6.32 11.45 6.75 3.16-2.92 5.3-6.75 7.88-10.16 0.84-0.19 1.68-0.39 2.54-0.6 3 5.42 3.8 11.72 4.02 17.82 0.01 17.34 0 34.68 0.01 52.03 0.14 16.75 0.13 33.93-5.26 50-3.24 9.77-8.91 19.24-17.88 24.72-12.14 7.56-26.72 9.69-40.74 10.51-18.65 0.67-37.31 0.27-55.96 0.37-13.01-0.15-26.06 0.47-39.04-0.72-16-1.48-31.72-9.3-41.33-22.38-8.83-11.87-12.13-26.94-12.57-41.49-0.04-20.32-0.01-40.64-0.02-60.95 0.06-7.1-0.45-14.31 1.23-21.28-15.09 0.12-30.19 0.04-45.28 0.04-4.65-0.26-9.28 1.29-12.91 4.18-3.69 2.99-7.59 6.9-7.71 11.97-0.08 42.35 0.07 84.71-0.07 127.06 0.2 2.91-3.06 3.5-5.28 3.53-16.67 0.11-33.35 0.01-50.03 0.05-2.54-0.03-6.79-0.07-6.7-3.56-0.11-46.66-0.01-93.32-0.06-139.98-0.15-10.73 4.67-21.18 12.36-28.56m183.03 26.34c-8.37 1.1-17.72 6.43-18.14 15.81-0.31 19.8-0.04 39.62-0.14 59.43-0.13 6.26 1.63 12.94 6.56 17.14 7.38 6.52 17.75 7.64 27.19 8 13.33 0.04 26.67-0.01 40 0.02 9.93-0.02 20.13-2.13 28.59-7.51 5.06-3.14 8.92-8.62 8.76-14.76 0.04-20.31 0.08-40.62-0.01-60.92 0.02-5.05-3.42-9.39-7.7-11.71-8.11-4.47-17.46-6.37-26.66-6.52-15.35 0-30.71 0.02-46.06 0-4.15-0.02-8.3 0.35-12.39 1.02z"/>
   <path d="m164.55-476.32c3.45-0.58 6.94-0.76 10.43-0.81 40.34-0.01 80.69 0.01 121.04-0.01 1.95-0.1 5.19 0.17 4.92 2.91 0.04 12.05 0.03 24.11 0 36.16 0.34 1.72-1.32 3.13-2.95 2.93-37 0.03-74-0.01-111 0.01-7.56 0.03-13.61 5.34-18.7 10.34-3.54 3.78-7.54 8.13-7.54 13.63 0.02 28.02 0 56.03 0.01 84.05 0.22 11.47 3.89 23.6 12.75 31.37 5.51 5.03 13.1 7.14 20.45 7.05 14.67-0.03 29.34 0.04 44.01-0.04 7.73-0.04 15.63-2.75 21.08-8.37 3.58-3.33 6.01-8.09 5.92-13.05-0.07-10.03 0.09-20.06-0.08-30.09-0.03-2.01-2.35-2.56-3.97-2.56-19.66-0.07-39.32 0.02-58.98-0.03-1.99 0.35-3.87-1.26-3.53-3.3 0.01-11.97-0.09-23.94 0.05-35.91-0.09-2.35 2.61-3.02 4.48-2.87 37.36-0.02 74.72-0.04 112.08 0 1.72-0.06 4.25 0.54 4.19 2.71 0.15 19.69 0.01 39.38 0.06 59.07-0.15 10.24 0.98 20.85-2.83 30.63-5.4 14.64-16.25 27.13-29.5 35.26-12.03 7.33-26.21 10.43-40.17 10.8-22.29 0.23-44.59 0.06-66.88 0.08-14.94-0.05-30.05-4.57-41.82-13.96-17.75-14.13-30.64-35.67-30.44-58.81 0.04-27.31 0.01-54.62 0.02-81.93 0.14-7.71-0.65-15.56 1.44-23.09 4.08-15.64 14.62-28.82 26.81-39.07 8.23-6.7 18.15-11.41 28.65-13.1z"/>
   <path d="m395.12-473.75c9.88-3.41 20.51-3.02 30.82-3.39 9.49 0.15 19.05 0.07 28.42 1.78 7 1.42 14.16 4.54 18.43 10.52 2.41 3.17 3.63 7.02 4.9 10.75 23.85 68.24 47.74 136.46 71.59 204.7 0.99 1.56-0.65 3.26-2.28 3.01-15.7 0.11-31.39 0.01-47.09 0.04-2.23 0.09-4.99-0.55-5.69-2.97-6.57-18.51-12.86-37.13-19.42-55.64-0.51-2.17-2.69-3.31-4.8-3.16-28.03-0.07-56.07 0.01-84.1-0.03-2.37-0.25-5.09 0.75-5.72 3.28-6.52 18.24-12.84 36.56-19.33 54.82-0.51 2.21-2.64 3.75-4.88 3.67-14.99 0.1-29.99-0.02-44.98 0.05-2.06-0.05-4.51 0.32-5.9-1.59 24.82-70.27 49.65-140.55 74.48-210.82 2.44-7.13 8.5-12.6 15.55-15.02m31.27 39.1c-3.16 3.72-3.88 8.79-5.69 13.21-7.51 21.51-14.95 43.06-22.51 64.55-0.42 1.34-1.43 3.39 0.44 4.15 1.75 0.43 3.57 0.28 5.36 0.32 16.97-0.1 33.95 0.09 50.92-0.09 1.89 0.17 3.21-1.88 2.08-3.49-8.66-24.75-17.18-49.55-25.95-74.26-0.92-1.79-2.04-5.49-4.65-4.39z"/>
   <path d="m587.97-476.24c10.65-1.29 21.44-1.04 32.1-0.04 7.12 0.77 14.36 2.02 20.81 5.29 4.99 2.55 8.22 7.41 10.66 12.28 5.48 11.11 7.39 23.47 9.87 35.48 6.44 34.63 12.83 69.27 19.24 103.91 1.38 7.66 2.93 15.47 6.48 22.47 2.48-3.27 3.85-7.22 4.95-11.13 5.74-35.15 12.17-70.22 18.21-105.33 3.11-17.01 5.54-34.83 14.58-49.9 5.13-8.66 15.62-11.22 24.89-12.54 13.96-1.72 28.23-2.07 42.15 0.24 10.57 1.86 21.73 6.28 27.69 15.73 4.81 7.23 5.12 16.24 4.93 24.63-0.02 61.69 0.02 123.38-0.02 185.07 0.22 2.05-1.43 3.91-3.52 3.68-15.35 0.12-30.71 0.08-46.06 0.02-2.12 0.25-4.07-1.49-3.75-3.67-0.04-56.37-0.01-112.74-0.02-169.11-0.12-3.5 0.59-7.21-1.09-10.45-1.74 0.03-3.53 0.5-4.49 2.06-2.26 3.55-2.36 7.93-3.32 11.92-11.53 45.42-21.75 91.17-33.15 136.63-1.82 9.08-5.05 18.62-12.63 24.51-8.69 6.52-19.94 7.91-30.49 8.14-9.88 0.1-20.22-1.57-28.38-7.51-5.46-3.79-9.31-9.74-10.7-16.22-12.04-50.37-24.01-100.76-36.04-151.13-0.86-2.87-1.39-6.02-3.24-8.45-1.25-0.39-2.5 0.01-3.71 0.3 0.07 59.77 0.05 119.55 0.01 179.32 0.35 2.36-1.76 3.86-3.92 3.68-15.31 0.01-30.62 0.11-45.92-0.05-2.15 0.23-3.65-1.72-3.42-3.76-0.05-63.33-0.01-126.65-0.03-189.98 0.04-8.34 2.14-17.14 8.02-23.35 7.45-8.18 18.68-11.38 29.31-12.74z"/>
   <path d="m870.55-476.41c6.09-0.83 12.26-0.73 18.41-0.72 38.69 0.02 77.39-0.03 116.09 0.02 1.84-0.01 4.94 0.33 4.86 2.83 0.11 12.07 0.05 24.15 0.03 36.23 0.33 1.66-1.27 3.06-2.85 2.91-40.06 0.02-80.13 0.01-120.19 0-1.92-0.15-4.78 0.59-4.62 3.02-0.02 14.66-0.01 29.33 0 43.99-0.3 1.61 0.86 3.37 2.63 3.18 37.35 0.07 74.7-0.02 112.05 0.04 1.74-0.02 4.45 0.44 4.26 2.77 0.11 12.69 0.05 25.38 0.03 38.07 0.22 2.37-2.41 3.1-4.27 2.93-37.04 0.03-74.08-0.01-111.12 0.02-1.82-0.33-3.93 0.98-3.57 3.01-0.04 15.64-0.02 31.29-0.01 46.94-0.28 2.06 2.06 2.67 3.68 2.71 40.34 0.06 80.68-0.03 121.02 0.04 1.78-0.16 3.38 1.44 2.97 3.25 0 12.02 0.07 24.06-0.03 36.08 0.18 2.64-3.14 2.8-5 2.77-46.66-0.05-93.32 0.02-139.98-0.04-12.09 0.02-22.79-7.47-29.85-16.8-3.68-4.89-6.22-10.83-6.13-17.02 0-49.3 0.01-98.61-0.01-147.91 0-5.4 0.59-10.83 2.1-16.03 3.14-11.57 11.25-21.75 22.02-27.08 5.47-2.74 11.43-4.37 17.48-5.21z"/>
   <path d="m1014.6-472.11c-0.27-2.13 0.48-5.22 3.22-4.93 41.69-0.21 83.39-0.03 125.08-0.09 11.32-0.22 23.03-0.24 33.59 4.42 15.85 6.1 27.62 20.45 32 36.68 3.78 13.64 2.83 27.97 2.12 41.93-0.93 9.17-2.25 18.69-6.94 26.78-6.55 8.72-14.83 16.31-24.52 21.39-2.22 0.92-3.14 3.61-2.34 5.81 2.08 9.06 9.38 15.4 14.28 22.94 3.91 5.08 5.42 11.39 7.73 17.25 5.29 14.3 10.55 28.6 15.85 42.9 1.17 3.27 3.5 5.91 5.18 8.91 0.46 1.65-1.81 1.68-2.82 1.77-16.39 0.03-32.77 0.02-49.15 0-4.56 0.14-6.84-4.65-8.43-8.19-7.66-18.97-15.34-37.93-22.87-56.95-2.08-7.04-5.87-14.21-12.71-17.62-4.27-2.36-9.22-2.69-13.99-2.46-12.98 0.07-25.97-0.1-38.95 0.08-1.83-0.17-3.29 1.52-2.99 3.29-0.04 24.01 0 48.02-0.01 72.04-0.09 3.12 0.45 6.39-0.86 9.35-2.69 0.51-5.43 0.54-8.14 0.49-13.59-0.09-27.18 0.09-40.76-0.08-2.17 0.26-3.76-1.63-3.53-3.73-0.06-73.99 0.01-147.98-0.04-221.98m53.28 38.9c0.16 18.06-0.09 36.12 0.12 54.18 0.09 2.4 3.08 2.55 4.91 2.59 20.99 0.01 41.99-0.01 62.99 0 6.94 0.2 13.4-3.82 17.57-9.15 5.08-7.04 6.11-16.08 5.91-24.53 0.03-5.62-1.17-11.39-4.48-16.02-3.01-4.81-7.95-9.04-13.89-8.98-22.71-0.02-45.42 0-68.13-0.02-1.94-0.19-3.73 0.48-5 1.93z"/>
  </g>
  <g transform="translate(-29.043 -767.13)">
   <path d="m899.43 84.4c4.47-0.05 8.95 0 13.42-0.06 0.05 5.63 0.05 11.26 0.28 16.9 5.23-1.75 10.37-3.77 15.69-5.25 1.61 4.19 3.12 8.42 4.86 12.55-5 2.44-10.18 4.49-15.36 6.5 2.79 4.93 6.44 9.29 9.58 14-3.71 2.55-7.05 5.65-10.97 7.87-2.99-3.38-5.49-7.16-8.32-10.68 0-0.83 0.01-2.49 0.01-3.32-1.09 0.14-2.16 0.27-3.22 0.41 0.56 0.52 1.01 1.11 1.37 1.79-0.86 0.21-1.7 0.41-2.54 0.6-2.58 3.41-4.72 7.24-7.88 10.16-4.56-0.43-7.63-4.58-11.45-6.75 2.77-5.04 6.51-9.45 9.43-14.41-4.94-2.05-9.89-4.1-15.02-5.65 0.44-3.91 2.25-7.44 3.36-11.17 0.14-0.46 0.41-1.39 0.55-1.85 5.5 1.24 10.7 3.47 16.11 5.05 0.15-5.56 0.03-11.12 0.1-16.69z" fill="#fcc201"/>
  </g>
 </g>
</svg>
